<svg viewBox="0 0 14 14" fill="none" xmlns="http://www.w3.org/2000/svg">
<g id="attach-square">
<g id="Group">
<path id="Vector" d="M7.11375 6.88322L6.29123 7.70572C5.83623 8.16072 5.83623 8.90156 6.29123 9.35656C6.74623 9.81156 7.48707 9.81156 7.94207 9.35656L9.23709 8.06156C10.1471 7.15156 10.1471 5.67573 9.23709 4.75989C8.32709 3.84989 6.85124 3.84989 5.93541 4.75989L4.52375 6.17155C3.74208 6.95322 3.74208 8.21905 4.52375 9.00072" stroke="#0055E8" style="stroke:#0055E8;stroke:color(display-p3 0.0000 0.3330 0.9083);stroke-opacity:1;" stroke-linecap="round" stroke-linejoin="round"/>
</g>
<path id="Vector_2" d="M5.2474 12.8334H8.7474C11.6641 12.8334 12.8307 11.6667 12.8307 8.75008V5.25008C12.8307 2.33341 11.6641 1.16675 8.7474 1.16675H5.2474C2.33073 1.16675 1.16406 2.33341 1.16406 5.25008V8.75008C1.16406 11.6667 2.33073 12.8334 5.2474 12.8334Z" stroke="#0055E8" style="stroke:#0055E8;stroke:color(display-p3 0.0000 0.3330 0.9083);stroke-opacity:1;" stroke-linecap="round" stroke-linejoin="round"/>
</g>
</svg>
