<svg width="125" height="125" viewBox="0 0 125 125" fill="none" xmlns="http://www.w3.org/2000/svg">
<rect x="0.40625" y="0.685059" width="123.66" height="123.66" rx="10.305" style="fill-opacity:1;"/>
<path d="M100.437 107.952H25.9626C24.5637 107.952 23.4297 106.818 23.4297 105.419V42.8828C23.4297 41.4839 24.5637 40.3499 25.9625 40.3499H30.3165M100.437 107.952V36.0009C100.437 35.2804 100.13 34.594 99.593 34.1135L85.5061 21.5064C85.0417 21.0907 84.4403 20.8609 83.817 20.8609H32.8494C31.4505 20.8609 30.3165 21.9949 30.3165 23.3938V40.3499M100.437 107.952L97.3812 106.58C94.1798 105.143 91.8383 102.287 91.0568 98.8656V98.8656C91.0494 98.8331 91.0456 98.7999 91.0456 98.7666V58.7659C91.0456 56.6676 89.3446 54.9666 87.2463 54.9666H54.1006C53.3152 54.9666 52.5742 54.6023 52.0947 53.9803L42.3463 41.3362C41.8667 40.7142 41.1258 40.3499 40.3404 40.3499H30.3165" stroke="white" style="stroke:white;stroke-opacity:1;" stroke-width="4.58375" stroke-linejoin="round"/>
<path d="M28.9297 52.0304H42.6809" stroke="white" style="stroke:white;stroke-opacity:1;" stroke-width="3.667" stroke-linecap="round"/>
<path d="M40.8438 27.2782H49.0945" stroke="white" style="stroke:white;stroke-opacity:1;" stroke-width="2.75025" stroke-linecap="round"/>
<path d="M28.9297 58.4477H42.6809" stroke="white" style="stroke:white;stroke-opacity:1;" stroke-width="3.667" stroke-linecap="round"/>
<path d="M40.8438 31.8619H66.5128" stroke="white" style="stroke:white;stroke-opacity:1;" stroke-width="2.75025" stroke-linecap="round"/>
<path d="M55.5156 27.2782H65.5999" stroke="white" style="stroke:white;stroke-opacity:1;" stroke-width="2.75025" stroke-linecap="round"/>
<path d="M69.2656 27.2782H80.2666" stroke="white" style="stroke:white;stroke-opacity:1;" stroke-width="2.75025" stroke-linecap="round"/>
<path d="M44.5156 36.4457L72.9349 36.4457" stroke="white" style="stroke:white;stroke-opacity:1;" stroke-width="2.75025" stroke-linecap="round"/>
<path d="M84.8516 20.8609V32.9961C84.8516 34.3949 85.9856 35.5289 87.3844 35.5289H100.436" stroke="white" style="stroke:white;stroke-opacity:1;" stroke-width="3.667"/>
<path d="M75.6797 62.1147H83.5808C84.2802 62.1147 84.8472 62.6817 84.8472 63.3811V72.1989" stroke="white" style="stroke:white;stroke-opacity:1;" stroke-width="3.667" stroke-linecap="round" stroke-linejoin="round"/>
</svg>
