<svg width="125" height="125" viewBox="0 0 125 125" fill="none" xmlns="http://www.w3.org/2000/svg">
<rect x="0.40625" y="0.869629" width="123.66" height="123.66" rx="10.305" style="fill-opacity:1;"/>
<path d="M90.5745 31.7859C89.8913 31.7859 89.236 32.0574 88.7528 32.5406C88.2697 33.0237 87.9983 33.6789 87.9983 34.3622C87.9983 35.0455 88.2697 35.7008 88.7528 36.1839C89.236 36.6671 89.8913 36.9385 90.5745 36.9385C91.2578 36.9385 91.9131 36.6671 92.3962 36.1839C92.8793 35.7008 93.1508 35.0455 93.1508 34.3622C93.1508 33.6789 92.8793 33.0237 92.3962 32.5406C91.9131 32.0574 91.2578 31.7859 90.5745 31.7859ZM59.6595 39.5147C58.9762 39.5147 58.3209 39.7862 57.8378 40.2693C57.3546 40.7525 57.0832 41.4077 57.0832 42.091C57.0832 42.7742 57.3546 43.4296 57.8378 43.9127C58.3209 44.3958 58.9762 44.6672 59.6595 44.6672C60.3427 44.6672 60.998 44.3958 61.4811 43.9127C61.9643 43.4296 62.2357 42.7742 62.2357 42.091C62.2357 41.4077 61.9643 40.7525 61.4811 40.2693C60.998 39.7862 60.3427 39.5147 59.6595 39.5147ZM85.422 39.5147V89.7518H95.727V39.5147H85.422ZM54.5069 47.2435V89.7518H64.812V47.2435H54.5069ZM28.7444 49.8197C28.0611 49.8197 27.4058 50.0912 26.9227 50.5743C26.4396 51.0575 26.1681 51.7127 26.1681 52.396C26.1681 53.0793 26.4396 53.7346 26.9227 54.2177C27.4058 54.7009 28.0611 54.9722 28.7444 54.9722C29.4277 54.9722 30.0829 54.7009 30.5661 54.2177C31.0492 53.7346 31.3206 53.0793 31.3206 52.396C31.3206 51.7127 31.0492 51.0575 30.5661 50.5743C30.0829 50.0912 29.4277 49.8197 28.7444 49.8197ZM23.5919 57.5485V89.7518H33.8969V57.5485H23.5919ZM44.2019 57.5485C43.5187 57.5485 42.8634 57.82 42.3802 58.3031C41.8971 58.7862 41.6257 59.4415 41.6257 60.1248C41.6257 60.808 41.8971 61.4633 42.3802 61.9465C42.8634 62.4296 43.5187 62.701 44.2019 62.701C44.8852 62.701 45.5405 62.4296 46.0236 61.9465C46.5068 61.4633 46.7782 60.808 46.7782 60.1248C46.7782 59.4415 46.5068 58.7862 46.0236 58.3031C45.5405 57.82 44.8852 57.5485 44.2019 57.5485ZM75.117 61.4129C74.4337 61.4129 73.7784 61.6843 73.2953 62.1675C72.8122 62.6506 72.5407 63.3059 72.5407 63.9891C72.5407 64.6724 72.8122 65.3277 73.2953 65.8109C73.7784 66.294 74.4337 66.5654 75.117 66.5654C75.8003 66.5654 76.4555 66.294 76.9387 65.8109C77.4218 65.3277 77.6932 64.6724 77.6932 63.9891C77.6932 63.3059 77.4218 62.6506 76.9387 62.1675C76.4555 61.6843 75.8003 61.4129 75.117 61.4129ZM39.0494 65.2773V89.7518H49.3544V65.2773H39.0494ZM69.9645 69.1417V89.7518H80.2695V69.1417H69.9645ZM22.3488 91.0399C21.6107 91.0399 21.0156 91.5937 21.0156 92.2842V92.3692C21.0156 93.0597 21.6107 93.6149 22.3488 93.6149H96.9701C97.7082 93.6149 98.3033 93.0597 98.3033 92.3692V92.2842C98.3033 91.595 97.7082 91.0399 96.9701 91.0399H22.3488Z" fill="white" style="fill:white;fill-opacity:1;"/>
</svg>
