<svg width="125" height="124" viewBox="0 0 125 124" fill="none" xmlns="http://www.w3.org/2000/svg">
<rect x="0.40625" y="0.187988" width="123.66" height="123.66" rx="10.305" style="fill-opacity:1;"/>
<path d="M99.8576 15.6461C99.2485 15.6458 98.6452 15.7655 98.0824 15.9984C97.5196 16.2314 97.0081 16.573 96.5774 17.0037C96.1467 17.4344 95.8051 17.9458 95.5722 18.5087C95.3392 19.0715 95.2195 19.6747 95.2198 20.2839V23.2368C91.3084 28.0866 86.3647 32.0031 80.7488 34.7014C75.1329 37.3997 68.986 38.8118 62.7555 38.8349H34.9289C31.2401 38.839 27.7036 40.3061 25.0952 42.9145C22.4868 45.5229 21.0197 49.0594 21.0156 52.7482V62.0238C21.0197 65.7125 22.4868 69.2491 25.0952 71.8575C27.7036 74.4659 31.2401 75.933 34.9289 75.937H37.1726L26.0293 101.938C25.7265 102.643 25.6036 103.413 25.6715 104.177C25.7395 104.942 25.9963 105.677 26.4188 106.318C26.8413 106.959 27.4163 107.485 28.0922 107.848C28.768 108.212 29.5237 108.402 30.2912 108.401H48.8422C49.7501 108.402 50.6381 108.136 51.3958 107.636C52.1535 107.136 52.7476 106.424 53.1041 105.589L65.7362 76.1133C71.4436 76.5323 77.0045 78.1169 82.0756 80.7692C87.1466 83.4216 91.6201 87.0853 95.2198 91.5342V94.4881C95.2198 95.7181 95.7085 96.8977 96.5782 97.7675C97.4479 98.6372 98.6276 99.1259 99.8576 99.1259C101.088 99.1259 102.267 98.6372 103.137 97.7675C104.007 96.8977 104.495 95.7181 104.495 94.4881V20.2839C104.496 19.6747 104.376 19.0715 104.143 18.5087C103.91 17.9458 103.568 17.4344 103.138 17.0037C102.707 16.573 102.196 16.2314 101.633 15.9984C101.07 15.7655 100.467 15.6458 99.8576 15.6461ZM34.9289 66.6615C33.6992 66.6607 32.52 66.1718 31.6504 65.3022C30.7809 64.4327 30.292 63.2535 30.2912 62.0238V52.7482C30.292 51.5185 30.7809 50.3393 31.6504 49.4698C32.52 48.6002 33.6992 48.1113 34.9289 48.1105H39.5667V66.6615H34.9289ZM45.7851 99.1259H37.3248L47.2616 75.937H55.7219L45.7851 99.1259ZM95.2198 78.357C86.0754 70.8235 74.6034 66.6906 62.7555 66.6613H48.8422V48.1102H62.7555C74.6037 48.0799 86.0755 43.9462 95.2198 36.4122V78.357Z" fill="white" style="fill:white;fill-opacity:1;"/>
</svg>
