<svg width="25" height="25" viewBox="0 0 25 25" fill="none" xmlns="http://www.w3.org/2000/svg">
<path d="M11.731 19.1232C15.0859 19.1232 17.8057 16.4035 17.8057 13.0485C17.8057 9.69352 15.0859 6.97379 11.731 6.97379C8.37599 6.97379 5.65625 9.69352 5.65625 13.0485C5.65625 16.4035 8.37599 19.1232 11.731 19.1232Z" stroke="#DADADA" style="stroke:#DADADA;stroke:color(display-p3 0.8549 0.8549 0.8549);stroke-opacity:1;" stroke-width="1.4" stroke-linecap="round" stroke-linejoin="round"/>
<path d="M18.4092 19.7213L18.2877 19.5998M18.2877 6.49715L18.4092 6.37566L18.2877 6.49715ZM5.0635 19.7213L5.18499 19.5998L5.0635 19.7213ZM11.7363 3.77755V3.70279V3.77755ZM11.7363 22.3942V22.3194V22.3942ZM2.46539 13.0485H2.39062H2.46539ZM21.082 13.0485H21.0073H21.082ZM5.18499 6.49715L5.0635 6.37566L5.18499 6.49715Z" stroke="#DADADA" style="stroke:#DADADA;stroke:color(display-p3 0.8549 0.8549 0.8549);stroke-opacity:1;" stroke-width="1.6" stroke-linecap="round" stroke-linejoin="round"/>
</svg>
