<svg width="28" height="28" viewBox="0 0 28 28" fill="none" xmlns="http://www.w3.org/2000/svg">
<path d="M24.9303 0.0105007L2.96706 0.0882346C1.3284 0.0940343 0.00502379 1.42231 0.0112209 3.05501L0.09467 25.0406C0.100867 26.6733 1.43429 27.9921 3.07295 27.9863L25.0362 27.9086C26.6749 27.9028 27.9983 26.5745 27.9921 24.9418L27.9086 2.95628C27.9024 1.32357 26.569 0.00470108 24.9303 0.0105007Z" fill="#FF4406" style="fill:#FF4406;fill:color(display-p3 1.0000 0.2667 0.0235);fill-opacity:1;"/>
<path d="M4.04293 5.21147C4.04293 5.21147 4.59561 3.8802 5.81986 4.0568C6.84532 4.20133 10.659 4.92447 11.8896 5.14513C12.2312 5.20824 12.5393 5.3902 12.7587 5.65856C12.9153 5.84674 13.0283 6.06695 13.0897 6.30355C13.1512 6.54016 13.1596 6.78734 13.1144 7.02755C13.0796 7.23813 12.9998 7.43881 12.8805 7.61605C12.7612 7.79329 12.6051 7.94298 12.4228 8.055C12.0786 8.26291 11.6686 8.33484 11.2738 8.25663L6.51812 7.40392L8.44685 11.7476C8.44685 11.7476 9.07841 12.9802 8.1549 13.4833C7.23139 13.9864 6.43788 14.0479 5.88017 13.3007C5.42349 12.6896 4.05274 8.89287 3.5612 7.52098C3.40701 7.10186 3.40127 6.64281 3.54495 6.22C3.66923 5.86493 3.83646 5.52626 4.04293 5.21147Z" fill="white" style="fill:white;fill-opacity:1;"/>
<path d="M12.7019 13.036L17.3503 7.50786C17.3503 7.50786 18.64 6.48753 19.6235 7.67943C19.9005 7.97943 20.0557 8.37132 20.059 8.77898C20.0623 9.18665 19.9135 9.58098 19.6413 9.88541L10.266 20.899C10.266 20.899 9.54974 21.7253 8.13113 20.6377C6.71252 19.5502 8.2705 18.038 8.2705 18.038L12.7019 13.036Z" fill="white" style="fill:white;fill-opacity:1;"/>
<path d="M14.9683 20.3866C14.9683 20.3866 14.8424 18.8585 16.4484 19.1465C18.0545 19.4345 21.7082 20.0896 21.7082 20.0896L19.62 15.2774C19.62 15.2774 19.3622 14.3801 20.4736 13.8499C20.7595 13.7122 21.0801 13.6629 21.3943 13.7084C21.7084 13.7539 22.0017 13.8921 22.2364 14.1052C22.322 14.1776 22.3891 14.2693 22.4321 14.3727L24.7883 19.9267C24.9242 20.284 24.9681 20.6695 24.916 21.0481C24.864 21.4266 24.7176 21.7862 24.4902 22.0939C24.3236 22.2966 24.1417 22.4863 23.9462 22.6615C23.679 22.8965 23.3616 23.0679 23.0181 23.1624C22.6745 23.2569 22.3138 23.2722 21.9634 23.2071L15.5634 22.0595C15.5634 22.0595 14.6123 21.7817 14.9683 20.3866Z" fill="white" style="fill:white;fill-opacity:1;"/>
</svg>
