<svg width="132" height="19" viewBox="0 0 132 19" fill="none" xmlns="http://www.w3.org/2000/svg">
<path d="M5.58911 0.862845C4.14899 0.786708 2.73965 1.26297 1.6948 2.30944C-0.394916 4.4024 -0.208624 7.96301 2.11598 10.2892L10.4991 18.6789L18.8807 10.2892C21.2053 7.96139 21.3916 4.4024 19.3018 2.30944C17.2121 0.216492 13.6596 0.406024 11.335 2.73387L10.4991 3.57137L9.66162 2.73387C8.50013 1.56914 7.03085 0.938982 5.58911 0.862845Z" fill="#F05542" style="fill:#F05542;fill:color(display-p3 0.9412 0.3333 0.2588);fill-opacity:1;"/>
<path d="M33.3555 0.862845C31.9154 0.786708 30.506 1.26297 29.4612 2.30944C27.3714 4.4024 27.5577 7.96301 29.8823 10.2892L38.2655 18.6789L46.647 10.2892C48.9716 7.96139 49.1579 4.4024 47.0682 2.30944C44.9785 0.216492 41.426 0.406024 39.1014 2.73387L38.2655 3.57137L37.428 2.73387C36.2665 1.56914 34.7972 0.938982 33.3555 0.862845Z" fill="#F05542" style="fill:#F05542;fill:color(display-p3 0.9412 0.3333 0.2588);fill-opacity:1;"/>
<path d="M61.1277 0.862845C59.6876 0.786708 58.2782 1.26297 57.2334 2.30944C55.1437 4.4024 55.33 7.96301 57.6546 10.2892L66.0377 18.6789L74.4192 10.2892C76.7438 7.96139 76.9301 4.4024 74.8404 2.30944C72.7507 0.216492 69.1982 0.406024 66.8736 2.73387L66.0377 3.57137L65.2002 2.73387C64.0387 1.56914 62.5694 0.938982 61.1277 0.862845Z" fill="#F05542" style="fill:#F05542;fill:color(display-p3 0.9412 0.3333 0.2588);fill-opacity:1;"/>
<path d="M88.9019 0.862845C87.4618 0.786708 86.0524 1.26297 85.0076 2.30944C82.9178 4.4024 83.1041 7.96301 85.4287 10.2892L93.8119 18.6789L102.193 10.2892C104.518 7.96139 104.704 4.4024 102.615 2.30944C100.525 0.216492 96.9724 0.406024 94.6478 2.73387L93.8119 3.57137L92.9744 2.73387C91.8129 1.56914 90.3436 0.938982 88.9019 0.862845Z" fill="#F05542" style="fill:#F05542;fill:color(display-p3 0.9412 0.3333 0.2588);fill-opacity:1;"/>
<path d="M116.666 0.862845C115.226 0.786708 113.817 1.26297 112.772 2.30944C110.682 4.4024 110.869 7.96301 113.193 10.2892L121.576 18.6789L129.958 10.2892C132.282 7.96139 132.469 4.4024 130.379 2.30944C128.289 0.216492 124.737 0.406024 122.412 2.73387L121.576 3.57137L120.739 2.73387C119.577 1.56914 118.108 0.938982 116.666 0.862845Z" fill="#F05542" style="fill:#F05542;fill:color(display-p3 0.9412 0.3333 0.2588);fill-opacity:1;"/>
</svg>
