<svg width="17" height="17" viewBox="0 0 17 17" fill="none" xmlns="http://www.w3.org/2000/svg">
<path d="M7.29322 2.42579C7.67121 2.4644 7.96608 2.78371 7.96608 3.17189C7.96608 3.56007 7.67121 3.87938 7.29322 3.91798L7.21608 3.92189H5.19557C4.70313 3.92189 4.40921 3.92386 4.1985 3.95216C4.10194 3.96514 4.05329 3.98031 4.03151 3.98927C4.02652 3.99133 4.02268 3.99315 4.02076 3.99415L4.01881 3.99513C4.01859 3.99549 4.01833 3.99616 4.01783 3.99708C4.01683 3.999 4.01501 4.00284 4.01295 4.00782C4.00399 4.0296 3.98882 4.07826 3.97584 4.17482C3.94754 4.38552 3.94557 4.67945 3.94557 5.17189V12.1719C3.94557 12.6643 3.94754 12.9583 3.97584 13.169C3.98882 13.2655 4.00399 13.3142 4.01295 13.3359C4.01501 13.3409 4.01683 13.3448 4.01783 13.3467L4.01881 13.3486L4.02076 13.3496C4.02268 13.3506 4.02652 13.3524 4.03151 13.3545C4.05329 13.3635 4.10194 13.3786 4.1985 13.3916C4.40921 13.4199 4.70313 13.4219 5.19557 13.4219H12.1956C12.688 13.4219 12.9819 13.4199 13.1926 13.3916C13.2892 13.3786 13.3379 13.3635 13.3596 13.3545C13.3646 13.3524 13.3685 13.3506 13.3704 13.3496L13.3723 13.3486L13.3733 13.3467C13.3743 13.3448 13.3761 13.3409 13.3782 13.3359C13.3871 13.3142 13.4023 13.2655 13.4153 13.169C13.4436 12.9583 13.4456 12.6643 13.4456 12.1719V10.1533C13.4457 9.73919 13.7814 9.40333 14.1956 9.40333C14.6097 9.40333 14.9455 9.73919 14.9456 10.1533V12.1719C14.9456 12.6221 14.9475 13.0352 14.9026 13.3692C14.8608 13.68 14.7692 14.0064 14.5403 14.2901L14.4329 14.4092C14.1239 14.7182 13.7483 14.8311 13.3928 14.8789C13.0589 14.9238 12.6458 14.9219 12.1956 14.9219H5.19557C4.74537 14.9219 4.33221 14.9238 3.9983 14.8789C3.68742 14.8371 3.3611 14.7455 3.0774 14.5166L2.95826 14.4092C2.64925 14.1002 2.53633 13.7246 2.48854 13.3692C2.44365 13.0352 2.44557 12.6221 2.44557 12.1719V5.17189C2.44557 4.72169 2.44365 4.30853 2.48854 3.97462C2.53633 3.61915 2.64925 3.2436 2.95826 2.93458L3.0774 2.82716C3.3611 2.59823 3.68742 2.50665 3.9983 2.46486C4.33221 2.41996 4.74537 2.42189 5.19557 2.42189H7.21608L7.29322 2.42579Z" fill="#0ED3DF"/>
<path d="M7.1853 10.1156L13.5625 3.73828" stroke="#0ED3DF" stroke-width="1.5" stroke-linecap="round"/>
<path d="M10.2099 3.15484L14.2188 3.15482L14.2188 7.10736" stroke="#0ED3DF" stroke-width="1.5" stroke-linecap="round" stroke-linejoin="round"/>
</svg>
