<svg width="51" height="45" viewBox="0 0 51 45" fill="none" xmlns="http://www.w3.org/2000/svg">
<path d="M36.3069 1.45508C37.2769 1.45455 38.1735 1.97157 38.659 2.81138L49.2805 21.1854C49.7659 22.0252 49.7665 23.0602 49.2819 23.9005L38.6803 42.2859C38.1958 43.1263 37.2997 43.6443 36.3297 43.6448L15.1066 43.6562C14.1366 43.6568 13.24 43.1398 12.7545 42.2999L2.13305 23.926C1.64758 23.0862 1.64702 22.0512 2.13158 21.2108L12.7332 2.82539C13.2177 1.98506 14.1138 1.46707 15.0838 1.46654L36.3069 1.45508Z" stroke="#FF5286" stroke-width="2" stroke-linejoin="round"/>
<path d="M23.7043 10.1367L23.9371 29.1124H25.7803L26.0132 10.1367H23.7043ZM23.1416 35.166C23.1416 36.1167 23.8983 36.8928 24.849 36.8928C25.7997 36.8928 26.5758 36.1167 26.5758 35.166C26.5758 34.2153 25.7997 33.4392 24.849 33.4392C23.8983 33.4392 23.1416 34.2153 23.1416 35.166Z" fill="#FF5286"/>
</svg>
