<svg width="124" height="124" viewBox="0 0 124 124" fill="none" xmlns="http://www.w3.org/2000/svg">
<rect width="123.66" height="123.66" rx="10.305" style="fill-opacity:1;"/>
<path d="M18.4399 25.3091C16.866 25.3091 15.5938 26.6923 15.5938 28.3943V97.0577C15.5938 98.2987 16.5102 99.3091 17.6401 99.3091H103.824C105.398 99.3091 106.67 97.9284 106.67 96.2236V28.3943C106.67 26.6894 105.398 25.3091 103.824 25.3091H18.4399ZM81.0551 28.1552C81.81 28.1552 82.5339 28.4551 83.0677 28.9889C83.6014 29.5226 83.9013 30.2465 83.9013 31.0014C83.9013 31.7562 83.6014 32.4801 83.0677 33.0139C82.5339 33.5476 81.81 33.8475 81.0551 33.8475C80.3003 33.8475 79.5764 33.5476 79.0426 33.0139C78.5089 32.4801 78.209 31.7562 78.209 31.0014C78.209 30.2465 78.5089 29.5226 79.0426 28.9889C79.5764 28.4551 80.3003 28.1552 81.0551 28.1552ZM89.5936 28.1552C90.3484 28.1552 91.0724 28.4551 91.6061 28.9889C92.1399 29.5226 92.4397 30.2465 92.4397 31.0014C92.4397 31.7562 92.1399 32.4801 91.6061 33.0139C91.0724 33.5476 90.3484 33.8475 89.5936 33.8475C88.8387 33.8475 88.1148 33.5476 87.581 33.0139C87.0473 32.4801 86.7474 31.7562 86.7474 31.0014C86.7474 30.2465 87.0473 29.5226 87.581 28.9889C88.1148 28.4551 88.8387 28.1552 89.5936 28.1552ZM98.132 28.1552C98.8869 28.1552 99.6108 28.4551 100.145 28.9889C100.678 29.5226 100.978 30.2465 100.978 31.0014C100.978 31.7562 100.678 32.4801 100.145 33.0139C99.6108 33.5476 98.8869 33.8475 98.132 33.8475C97.3772 33.8475 96.6532 33.5476 96.1195 33.0139C95.5857 32.4801 95.2859 31.7562 95.2859 31.0014C95.2859 30.2465 95.5857 29.5226 96.1195 28.9889C96.6532 28.4551 97.3772 28.1552 98.132 28.1552ZM21.1067 36.6937H101.157C102.629 36.6937 103.83 37.8094 103.83 39.184V93.9726C103.83 95.3472 102.629 96.4629 101.155 96.4629H81.0551V47.4835C81.0551 46.2425 80.1387 45.2321 79.0088 45.2321H18.4399V39.184C18.4399 37.8094 19.6324 36.6937 21.1067 36.6937ZM65.4013 48.0783C65.7788 48.0783 66.1407 48.2281 66.4076 48.495C66.6745 48.7619 66.8244 49.1239 66.8244 49.5013C66.8244 49.8788 66.6745 50.2408 66.4076 50.5077C66.1407 50.7745 65.7788 50.9244 65.4013 50.9244C65.0239 50.9244 64.6619 50.7745 64.3951 50.5077C64.1282 50.2408 63.9783 49.8788 63.9783 49.5013C63.9783 49.1239 64.1282 48.7619 64.3951 48.495C64.6619 48.2281 65.0239 48.0783 65.4013 48.0783ZM71.0936 48.0783C71.471 48.0783 71.833 48.2281 72.0999 48.495C72.3668 48.7619 72.5167 49.1239 72.5167 49.5013C72.5167 49.8788 72.3668 50.2408 72.0999 50.5077C71.833 50.7745 71.471 50.9244 71.0936 50.9244C70.7162 50.9244 70.3542 50.7745 70.0874 50.5077C69.8205 50.2408 69.6705 49.8788 69.6705 49.5013C69.6705 49.1239 69.8205 48.7619 70.0874 48.495C70.3542 48.2281 70.7162 48.0783 71.0936 48.0783ZM76.7859 48.0783C77.1633 48.0783 77.5253 48.2281 77.7922 48.495C78.0591 48.7619 78.209 49.1239 78.209 49.5013C78.209 49.8788 78.0591 50.2408 77.7922 50.5077C77.5253 50.7745 77.1633 50.9244 76.7859 50.9244C76.4085 50.9244 76.0465 50.7745 75.7797 50.5077C75.5128 50.2408 75.3628 49.8788 75.3628 49.5013C75.3628 49.1239 75.5128 48.7619 75.7797 48.495C76.0465 48.2281 76.4085 48.0783 76.7859 48.0783ZM20.307 53.7706H76.3419C77.3722 53.7706 78.209 54.5675 78.209 55.5494V94.6841C78.209 95.6689 77.3722 96.4629 76.3419 96.4629H21.1067C19.6324 96.4629 18.4399 95.3472 18.4399 93.9726V55.5494C18.4399 54.5646 19.2767 53.7706 20.307 53.7706Z" fill="white" style="fill:white;fill-opacity:1;"/>
</svg>
