<svg width="125" height="125" viewBox="0 0 125 125" fill="none" xmlns="http://www.w3.org/2000/svg">
<rect x="0.40625" y="0.355957" width="123.66" height="123.66" rx="10.305" style="fill-opacity:1;"/>
<path d="M102.165 18.0054C102.117 18.0051 102.069 18.0071 102.021 18.0114C101.65 18.0282 101.298 18.1823 101.033 18.4439L92.0231 27.4539C91.8261 27.6514 91.688 27.8999 91.6244 28.1716C91.5607 28.4432 91.574 28.7271 91.6627 28.9916L92.87 32.6166L83.4395 42.0471C76.7513 35.8522 67.9706 32.4111 58.8542 32.4124C38.7979 32.4124 22.5078 48.6995 22.5078 68.7558C22.5078 88.8121 38.7979 105.102 58.8542 105.102C78.9075 105.102 95.2036 88.8121 95.2036 68.7558C95.2036 59.2683 91.5275 50.6487 85.5629 44.1735L94.9934 34.743L98.6184 35.9503C98.8832 36.0387 99.1673 36.0514 99.4389 35.9872C99.7105 35.9231 99.9589 35.7844 100.156 35.5869L109.166 26.5769C109.348 26.3959 109.48 26.1713 109.551 25.9245C109.621 25.6778 109.627 25.4172 109.568 25.1675C109.509 24.9178 109.387 24.6875 109.213 24.4983C109.04 24.3092 108.821 24.1676 108.577 24.0872L104.784 22.8258L103.523 19.0325C103.427 18.7441 103.246 18.4914 103.004 18.308C102.761 18.1246 102.469 18.0191 102.165 18.0054ZM101.439 22.2882L102.171 24.4866C102.245 24.7084 102.369 24.91 102.535 25.0753C102.7 25.2406 102.902 25.365 103.123 25.4387L105.322 26.1715L98.6875 32.8059L95.7773 31.8358L94.8042 28.9225L101.439 22.2882ZM58.8512 35.4128C67.1746 35.4075 75.196 38.5301 81.3252 44.1615L77.0244 48.4623C72.032 43.9808 65.5629 41.4969 58.8542 41.4855C51.6217 41.4855 44.6854 44.3586 39.5712 49.4728C34.457 54.587 31.5839 61.5233 31.5839 68.7558C31.5847 75.9878 34.4582 82.9234 39.5723 88.0369C44.6863 93.1504 51.6222 96.0231 58.8542 96.0231C66.0862 96.0231 73.0221 93.1504 78.1362 88.0369C83.2503 82.9234 86.1237 75.9878 86.1245 68.7558C86.1116 62.0492 83.6278 55.5825 79.1478 50.5916L83.4486 46.2848C89.0808 52.4125 92.2045 60.433 92.2003 68.7558C92.203 73.1355 91.3424 77.4728 89.6675 81.5196C87.9927 85.5664 85.5365 89.2434 82.4394 92.3401C79.3424 95.4369 75.6652 97.8928 71.6182 99.5673C67.5713 101.242 63.2339 102.102 58.8542 102.099C54.4747 102.102 50.1374 101.242 46.0906 99.5672C42.0438 97.8927 38.3669 95.4368 35.2701 92.34C32.1732 89.2431 29.7173 85.5662 28.0428 81.5194C26.3683 77.4726 25.508 73.1354 25.5112 68.7558C25.5084 64.3765 26.369 60.0396 28.0437 55.9932C29.7184 51.9467 32.1743 48.2701 35.2711 45.1736C38.3679 42.0771 42.0447 39.6215 46.0913 37.9471C50.1379 36.2728 54.4719 35.4096 58.8512 35.4128ZM58.8512 47.5462C63.9562 47.5543 68.8871 49.4033 72.7386 52.754L68.4499 57.0428C65.7442 54.8236 62.3536 53.6096 58.8542 53.607C54.837 53.6078 50.9846 55.2042 48.1443 58.045C45.304 60.8859 43.7084 64.7386 43.7084 68.7558C43.7092 72.7725 45.3051 76.6244 48.1454 79.4647C50.9856 82.3049 54.8375 83.9008 58.8542 83.9016C62.8714 83.9016 66.7241 82.306 69.565 79.4657C72.4059 76.6254 74.0023 72.773 74.0031 68.7558C74.0008 65.2592 72.789 61.8711 70.5732 59.1662L74.874 54.8654C78.2189 58.7203 80.0615 63.6521 80.0638 68.7558C80.063 74.3804 77.8281 79.7744 73.8506 83.7513C69.8731 87.7282 64.4788 89.9624 58.8542 89.9624C53.2296 89.9632 47.835 87.7298 43.857 83.7534C39.8789 79.7771 37.6432 74.3834 37.6416 68.7588C37.6412 65.973 38.1896 63.2145 39.2555 60.6406C40.3214 58.0668 41.8839 55.7282 43.8538 53.7584C45.8236 51.7885 48.1622 50.226 50.736 49.1601C53.3099 48.0943 56.0654 47.5458 58.8512 47.5462ZM58.8512 59.6647C60.7432 59.6687 62.5868 60.263 64.1251 61.3646L59.6141 65.8756C59.3648 65.8095 59.1245 65.7254 58.8542 65.7254C58.2551 65.726 57.6696 65.9042 57.1718 66.2374C56.6739 66.5706 56.2859 67.0439 56.0569 67.5975C55.828 68.1511 55.7682 68.7602 55.8852 69.3477C56.0022 69.9353 56.2908 70.475 56.7144 70.8986C57.1381 71.3222 57.6777 71.6108 58.2653 71.7278C58.8528 71.8448 59.4619 71.7851 60.0155 71.5561C60.5691 71.3271 61.0424 70.9391 61.3756 70.4413C61.7088 69.9434 61.887 69.3579 61.8876 68.7588C61.8876 68.4915 61.7975 68.2513 61.7344 68.008L66.2484 63.485C67.3484 65.0227 67.9415 66.8652 67.9453 68.7558C67.9445 71.1664 66.9864 73.478 65.2815 75.1823C63.5767 76.8865 61.2648 77.8439 58.8542 77.8439C56.4441 77.8431 54.133 76.8854 52.4288 75.1812C50.7247 73.477 49.7669 71.1659 49.7661 68.7558C49.7661 66.3452 50.7235 64.0333 52.4278 62.3285C54.132 60.6237 56.4406 59.6655 58.8512 59.6647Z" fill="white" style="fill:white;fill-opacity:1;"/>
</svg>
