<svg width="14" height="14" viewBox="0 0 14 14" fill="none" xmlns="http://www.w3.org/2000/svg">
<path d="M12.8308 3.1969V9.91716C12.8308 10.4517 12.3965 10.9527 11.862 11.0196L11.6782 11.0419C10.4645 11.2033 8.59371 11.8213 7.52471 12.4115C7.37995 12.495 7.14056 12.495 6.99023 12.4115L6.96794 12.4004C5.89893 11.8158 4.03378 11.2033 2.82558 11.0419L2.66409 11.0196C2.12959 10.9527 1.69531 10.4517 1.69531 9.91716V3.19133C1.69531 2.52877 2.23537 2.02768 2.89793 2.08336C4.06715 2.17801 5.83769 2.7682 6.82874 3.38622L6.96794 3.46972C7.1294 3.56994 7.39668 3.56994 7.55815 3.46972L7.65279 3.40848C8.00356 3.19134 8.44897 2.9742 8.93336 2.77932V5.05097L10.0469 4.31045L11.1605 5.05097V2.14463C11.3108 2.11679 11.4556 2.10007 11.5892 2.08893H11.6226C12.2851 2.03325 12.8308 2.52878 12.8308 3.1969Z" stroke="#8E8E8E" style="stroke:#8E8E8E;stroke:color(display-p3 0.5576 0.5576 0.5576);stroke-opacity:1;" stroke-width="0.876917" stroke-linecap="round" stroke-linejoin="round"/>
<path d="M7.26562 3.65378V12.0054" stroke="#8E8E8E" style="stroke:#8E8E8E;stroke:color(display-p3 0.5576 0.5576 0.5576);stroke-opacity:1;" stroke-width="0.876917" stroke-linecap="round" stroke-linejoin="round"/>
<path d="M11.1646 2.14493V5.05127L10.051 4.31075L8.9375 5.05127V2.77962C9.66687 2.4901 10.4798 2.25628 11.1646 2.14493Z" stroke="#8E8E8E" style="stroke:#8E8E8E;stroke:color(display-p3 0.5576 0.5576 0.5576);stroke-opacity:1;" stroke-width="0.876917" stroke-linecap="round" stroke-linejoin="round"/>
</svg>
