<svg width="140" height="23" viewBox="0 0 140 23" fill="none" xmlns="http://www.w3.org/2000/svg">
<g clip-path="url(#clip0_3805_15338)">
<path d="M12.0476 18.5596C11.7013 18.3497 11.267 18.3498 10.9207 18.5597L5.60902 21.7791C4.78573 22.2781 3.76795 21.5398 3.98672 20.6023L5.39492 14.5674C5.4864 14.1754 5.35375 13.7649 5.05016 13.5005L0.37472 9.42887C-0.349499 8.79818 0.0398295 7.60693 0.996729 7.52567L7.15827 7.00244C7.5595 6.96837 7.90904 6.71532 8.0667 6.34478L10.4848 0.661551C10.8601 -0.220518 12.1103 -0.220517 12.4856 0.661553L14.9037 6.34479C15.0614 6.71532 15.4109 6.96837 15.8121 7.00244L21.9737 7.52567C22.9306 7.60693 23.3199 8.79818 22.5957 9.42887L17.9203 13.5005C17.6167 13.7649 17.484 14.1754 17.5755 14.5674L18.9838 20.6027C19.2025 21.5401 18.1849 22.2784 17.3616 21.7796L12.0476 18.5596Z" fill="#FFC500" style="fill:#FFC500;fill:color(display-p3 1.0000 0.7725 0.0000);fill-opacity:1;"/>
</g>
<g clip-path="url(#clip1_3805_15338)">
<path d="M40.1257 18.5596C39.7794 18.3497 39.3451 18.3498 38.9988 18.5597L33.6871 21.7791C32.8639 22.2781 31.8461 21.5398 32.0648 20.6023L33.473 14.5674C33.5645 14.1754 33.4319 13.7649 33.1283 13.5005L28.4528 9.42887C27.7286 8.79818 28.118 7.60693 29.0749 7.52567L35.2364 7.00244C35.6376 6.96837 35.9872 6.71532 36.1448 6.34478L38.5629 0.661551C38.9382 -0.220518 40.1885 -0.220517 40.5638 0.661553L42.9818 6.34479C43.1395 6.71532 43.489 6.96837 43.8903 7.00244L50.0518 7.52567C51.0087 7.60693 51.398 8.79818 50.6738 9.42887L45.9984 13.5005C45.6948 13.7649 45.5621 14.1754 45.6536 14.5674L47.0619 20.6027C47.2807 21.5401 46.263 22.2784 45.4397 21.7796L40.1257 18.5596Z" fill="#FFC500" style="fill:#FFC500;fill:color(display-p3 1.0000 0.7725 0.0000);fill-opacity:1;"/>
</g>
<g clip-path="url(#clip2_3805_15338)">
<path d="M68.1961 18.5596C67.8497 18.3497 67.4154 18.3498 67.0691 18.5597L61.7575 21.7791C60.9342 22.2781 59.9164 21.5398 60.1352 20.6023L61.5434 14.5674C61.6348 14.1754 61.5022 13.7649 61.1986 13.5005L56.5232 9.42887C55.7989 8.79818 56.1883 7.60693 57.1452 7.52567L63.3067 7.00244C63.7079 6.96837 64.0575 6.71532 64.2151 6.34478L66.6332 0.661551C67.0085 -0.220518 68.2588 -0.220517 68.6341 0.661553L71.0522 6.34479C71.2098 6.71532 71.5594 6.96837 71.9606 7.00244L78.1221 7.52567C79.079 7.60693 79.4684 8.79818 78.7441 9.42887L74.0687 13.5005C73.7651 13.7649 73.6325 14.1754 73.7239 14.5674L75.1322 20.6027C75.351 21.5401 74.3333 22.2784 73.51 21.7796L68.1961 18.5596Z" fill="#FFC500" style="fill:#FFC500;fill:color(display-p3 1.0000 0.7725 0.0000);fill-opacity:1;"/>
</g>
<g clip-path="url(#clip3_3805_15338)">
<path d="M96.2742 18.5596C95.9278 18.3497 95.4935 18.3498 95.1472 18.5597L89.8356 21.7791C89.0123 22.2781 87.9945 21.5398 88.2133 20.6023L89.6215 14.5674C89.713 14.1754 89.5803 13.7649 89.2767 13.5005L84.6013 9.42887C83.8771 8.79818 84.2664 7.60693 85.2233 7.52567L91.3848 7.00244C91.7861 6.96837 92.1356 6.71532 92.2933 6.34478L94.7114 0.661551C95.0867 -0.220518 96.3369 -0.220517 96.7122 0.661553L99.1303 6.34479C99.2879 6.71532 99.6375 6.96837 100.039 7.00244L106.2 7.52567C107.157 7.60693 107.546 8.79818 106.822 9.42887L102.147 13.5005C101.843 13.7649 101.711 14.1754 101.802 14.5674L103.21 20.6027C103.429 21.5401 102.411 22.2784 101.588 21.7796L96.2742 18.5596Z" fill="#FFC500" style="fill:#FFC500;fill:color(display-p3 1.0000 0.7725 0.0000);fill-opacity:1;"/>
</g>
<g clip-path="url(#clip4_3805_15338)">
<path d="M124.344 18.5596C123.998 18.3497 123.564 18.3498 123.218 18.5597L117.906 21.7791C117.083 22.2781 116.065 21.5398 116.284 20.6023L117.692 14.5674C117.783 14.1754 117.651 13.7649 117.347 13.5005L112.672 9.42887C111.947 8.79818 112.337 7.60693 113.294 7.52567L119.455 7.00244C119.856 6.96837 120.206 6.71532 120.364 6.34478L122.782 0.661551C123.157 -0.220518 124.407 -0.220517 124.783 0.661553L127.201 6.34479C127.358 6.71532 127.708 6.96837 128.109 7.00244L134.271 7.52567C135.227 7.60693 135.617 8.79818 134.893 9.42887L130.217 13.5005C129.914 13.7649 129.781 14.1754 129.872 14.5674L131.281 20.6027C131.499 21.5401 130.482 22.2784 129.658 21.7796L124.344 18.5596Z" fill="#FFC500" style="fill:#FFC500;fill:color(display-p3 1.0000 0.7725 0.0000);fill-opacity:1;"/>
</g>
<defs>
<clipPath id="clip0_3805_15338">
<rect width="22.9704" height="22.0133" fill="white" style="fill:white;fill-opacity:1;"/>
</clipPath>
<clipPath id="clip1_3805_15338">
<rect width="22.9704" height="22.0133" fill="white" style="fill:white;fill-opacity:1;" transform="translate(28.0781)"/>
</clipPath>
<clipPath id="clip2_3805_15338">
<rect width="22.9704" height="22.0133" fill="white" style="fill:white;fill-opacity:1;" transform="translate(56.1484)"/>
</clipPath>
<clipPath id="clip3_3805_15338">
<rect width="22.9704" height="22.0133" fill="white" style="fill:white;fill-opacity:1;" transform="translate(84.2266)"/>
</clipPath>
<clipPath id="clip4_3805_15338">
<rect width="22.9704" height="22.0133" fill="white" style="fill:white;fill-opacity:1;" transform="translate(112.297)"/>
</clipPath>
</defs>
</svg>
