<svg width="84" height="84" viewBox="0 0 84 84" fill="none" xmlns="http://www.w3.org/2000/svg">
<path d="M74.8389 45.2112L42.46 78.503C41.9322 79.0465 41.0662 79.0465 40.5384 78.503L8.15919 45.2112C0.805111 37.6534 0.208454 25.3723 7.34112 17.5931C14.8431 9.4229 27.1601 9.2753 34.731 17.1601L41.4992 24.0212L48.2674 17.1601C55.8383 9.2753 68.1553 9.4229 75.6573 17.5931C82.7899 25.3723 82.1933 37.6534 74.8389 45.2112Z" fill="#F14767" style="fill:#F14767;fill:color(display-p3 0.9451 0.2784 0.4039);fill-opacity:1;"/>
<path d="M76.656 16.6849C72.7651 12.4364 67.5385 10.0665 61.9475 10.0032C56.3828 9.90316 51.2038 12.1514 47.3076 16.2099L40.5394 23.071C40.0165 23.604 40.0218 24.4588 40.5499 24.9813C41.0829 25.5038 41.9384 25.4986 42.4609 24.9708L49.2452 18.094C52.6346 14.5685 57.1113 12.6473 61.9157 12.7054C66.7516 12.7582 71.2815 14.8217 74.6604 18.5057C81.1593 25.5885 80.8057 37.1467 73.8738 44.2715L41.5106 77.558L9.12644 44.2715C2.19977 37.1467 1.84059 25.5885 8.33986 18.5057C11.7187 14.8217 16.2483 12.7582 21.0845 12.7054C21.1531 12.7054 21.2164 12.7054 21.2797 12.7054C25.989 12.7054 30.4132 14.6161 33.7708 18.1097L37.3714 21.7622C37.8943 22.29 38.7546 22.2952 39.2827 21.7727C39.8158 21.2502 39.8213 20.395 39.2932 19.862L35.7084 16.2256C31.8493 12.2094 26.7333 10.0032 21.2849 10.0032C21.2059 10.0032 21.1318 10.0032 21.0527 10.0032C15.4617 10.0665 10.2351 12.4364 6.34423 16.6849C-1.10005 24.8019 -0.719886 38.0225 7.18886 46.1556L39.573 79.4422C40.0851 79.9699 40.7664 80.2602 41.5001 80.2602C42.2339 80.2602 42.9148 79.9699 43.4272 79.4422L75.8114 46.1556C83.7198 38.0225 84.1 24.8019 76.656 16.6849Z" fill="white" style="fill:white;fill-opacity:1;"/>
<path d="M34.7421 41.0787C35.0905 41.0787 35.4336 40.9466 35.6976 40.6828C36.2257 40.1551 36.2257 39.2999 35.6976 38.7721L32.5985 35.6741L35.6976 32.5763C36.2257 32.0485 36.2257 31.1934 35.6976 30.6656C35.1698 30.1378 34.3144 30.1378 33.7866 30.6656L29.732 34.7189C29.2039 35.2467 29.2039 36.1018 29.732 36.6296L33.7866 40.6828C34.0503 40.9466 34.3938 41.0787 34.7421 41.0787Z" fill="white" style="fill:white;fill-opacity:1;"/>
<path d="M47.3023 40.6828C47.5661 40.9466 47.9092 41.0787 48.2578 41.0787C48.6062 41.0787 48.9493 40.9466 49.2133 40.6828L53.2679 36.6296C53.796 36.1018 53.796 35.2467 53.2679 34.7189L49.2133 30.6656C48.6852 30.1378 47.8301 30.1378 47.3023 30.6656C46.7742 31.1934 46.7742 32.0485 47.3023 32.5763L50.4011 35.6741L47.3023 38.7721C46.7742 39.2999 46.7742 40.1551 47.3023 40.6828Z" fill="white" style="fill:white;fill-opacity:1;"/>
<path d="M43.1784 28.9606C42.4499 28.7759 41.7214 29.2194 41.5419 29.9423L38.8388 40.7511C38.6541 41.474 39.0976 42.2078 39.8208 42.3872C39.9317 42.4134 40.0426 42.4295 40.1479 42.4295C40.755 42.4295 41.3041 42.0231 41.4573 41.4055L44.1605 30.5967C44.3451 29.8738 43.9017 29.14 43.1784 28.9606Z" fill="white" style="fill:white;fill-opacity:1;"/>
<path d="M29.3356 45.1316H27.9842C27.24 45.1316 26.6328 45.7384 26.6328 46.4827C26.6328 47.2266 27.24 47.8338 27.9842 47.8338H29.3356C30.0802 47.8338 30.6874 47.2266 30.6874 46.4827C30.6874 45.7384 30.0802 45.1316 29.3356 45.1316Z" fill="white" style="fill:white;fill-opacity:1;"/>
<path d="M33.3906 46.4827C33.3906 47.2266 33.9978 47.8338 34.742 47.8338H55.0153C55.7596 47.8338 56.3667 47.2266 56.3667 46.4827C56.3667 45.7384 55.7596 45.1316 55.0153 45.1316H34.742C33.9978 45.1316 33.3906 45.7384 33.3906 46.4827Z" fill="white" style="fill:white;fill-opacity:1;"/>
<path d="M29.3356 50.5366H27.9842C27.24 50.5366 26.6328 51.1434 26.6328 51.8877C26.6328 52.6316 27.24 53.2388 27.9842 53.2388H29.3356C30.0802 53.2388 30.6874 52.6316 30.6874 51.8877C30.6874 51.1434 30.0802 50.5366 29.3356 50.5366Z" fill="white" style="fill:white;fill-opacity:1;"/>
<path d="M38.7966 50.5366H34.742C33.9978 50.5366 33.3906 51.1434 33.3906 51.8877C33.3906 52.6316 33.9978 53.2388 34.742 53.2388H38.7966C39.5412 53.2388 40.148 52.6316 40.148 51.8877C40.148 51.1434 39.5412 50.5366 38.7966 50.5366Z" fill="white" style="fill:white;fill-opacity:1;"/>
<path d="M49.6093 51.8877C49.6093 51.1434 49.0022 50.5366 48.2579 50.5366H44.2033C43.4587 50.5366 42.8516 51.1434 42.8516 51.8877C42.8516 52.6316 43.4587 53.2388 44.2033 53.2388H48.2579C49.0022 53.2388 49.6093 52.6316 49.6093 51.8877Z" fill="white" style="fill:white;fill-opacity:1;"/>
<path d="M29.3356 55.9404H27.9842C27.24 55.9404 26.6328 56.5473 26.6328 57.2915C26.6328 58.0355 27.24 58.6426 27.9842 58.6426H29.3356C30.0802 58.6426 30.6874 58.0355 30.6874 57.2915C30.6874 56.5473 30.0802 55.9404 29.3356 55.9404Z" fill="white" style="fill:white;fill-opacity:1;"/>
<path d="M38.7966 55.9404H34.742C33.9978 55.9404 33.3906 56.5473 33.3906 57.2915C33.3906 58.0355 33.9978 58.6426 34.742 58.6426H38.7966C39.5412 58.6426 40.148 58.0355 40.148 57.2915C40.148 56.5473 39.5412 55.9404 38.7966 55.9404Z" fill="white" style="fill:white;fill-opacity:1;"/>
<path d="M44.2033 55.9404C43.4587 55.9404 42.8516 56.5473 42.8516 57.2915C42.8516 58.0355 43.4587 58.6426 44.2033 58.6426H46.9061C47.6507 58.6426 48.2579 58.0355 48.2579 57.2915C48.2579 56.5473 47.6507 55.9404 46.9061 55.9404H44.2033Z" fill="white" style="fill:white;fill-opacity:1;"/>
<path d="M55.0155 55.9404H52.3124C51.5678 55.9404 50.9609 56.5473 50.9609 57.2915C50.9609 58.0355 51.5678 58.6426 52.3124 58.6426H55.0155C55.7598 58.6426 56.3669 58.0355 56.3669 57.2915C56.3669 56.5473 55.7598 55.9404 55.0155 55.9404Z" fill="white" style="fill:white;fill-opacity:1;"/>
<path d="M9.85887 38.7196C9.25696 39.1631 9.1251 40.0074 9.56332 40.6093C9.89593 41.0629 10.2548 41.5064 10.6402 41.9338C10.9042 42.2293 11.2739 42.3825 11.6433 42.3825C11.9654 42.3825 12.2875 42.2664 12.5463 42.0342C13.1006 41.5326 13.1426 40.6778 12.6463 40.1235C12.3245 39.7699 12.0287 39.4005 11.7489 39.0151C11.3107 38.4135 10.466 38.2817 9.85887 38.7196Z" fill="white" style="fill:white;fill-opacity:1;"/>
<path d="M22.6298 16.7586C22.6298 16.0146 22.023 15.4075 21.2784 15.4075C17.1287 15.4075 13.2431 17.1545 10.329 20.3369C6.89729 24.0736 5.58786 29.4199 6.82316 34.6343C6.96585 35.2569 7.52544 35.6738 8.13259 35.6738C8.23822 35.6738 8.34384 35.6633 8.44946 35.6371C9.17273 35.4629 9.6267 34.74 9.45252 34.0114C8.42289 29.6679 9.50009 25.24 12.3246 22.1577C14.7162 19.5506 17.8995 18.1097 21.2784 18.1097C22.023 18.1097 22.6298 17.5028 22.6298 16.7586Z" fill="white" style="fill:white;fill-opacity:1;"/>
</svg>
