<svg width="26" height="26" viewBox="0 0 26 26" fill="none" xmlns="http://www.w3.org/2000/svg">
<mask id="mask0_3805_16216" style="mask-type:luminance" maskUnits="userSpaceOnUse" x="0" y="0" width="26" height="26">
<path d="M0.979688 24.4884V0.8H24.2821V24.4884H0.979688Z" fill="white" stroke="white" style="fill:white;fill-opacity:1;stroke:white;stroke-opacity:1;" stroke-width="1.6"/>
</mask>
<g mask="url(#mask0_3805_16216)">
<path d="M15.2618 8.14502L8.95312 11.3482" stroke="#DADADA" style="stroke:#DADADA;stroke:color(display-p3 0.8549 0.8549 0.8549);stroke-opacity:1;" stroke-width="1.4" stroke-linecap="round" stroke-linejoin="round"/>
<path d="M15.2539 17.1651L8.94531 13.9619" stroke="#DADADA" style="stroke:#DADADA;stroke:color(display-p3 0.8549 0.8549 0.8549);stroke-opacity:1;" stroke-width="1.4" stroke-linecap="round" stroke-linejoin="round"/>
<path d="M6.40028 15.5419C7.97617 15.5419 9.25368 14.2446 9.25368 12.6443C9.25368 11.0439 7.97617 9.74665 6.40028 9.74665C4.82439 9.74665 3.54688 11.0439 3.54688 12.6443C3.54688 14.2446 4.82439 15.5419 6.40028 15.5419Z" stroke="#DADADA" style="stroke:#DADADA;stroke:color(display-p3 0.8549 0.8549 0.8549);stroke-opacity:1;" stroke-width="1.4" stroke-linecap="round" stroke-linejoin="round"/>
<path d="M17.8143 9.74693C19.3903 9.74693 20.6677 8.44961 20.6677 6.8493C20.6677 5.24898 19.3903 3.95167 17.8143 3.95167C16.2384 3.95167 14.9609 5.24898 14.9609 6.8493C14.9609 8.44961 16.2384 9.74693 17.8143 9.74693Z" stroke="#DADADA" style="stroke:#DADADA;stroke:color(display-p3 0.8549 0.8549 0.8549);stroke-opacity:1;" stroke-width="1.4" stroke-linecap="round" stroke-linejoin="round"/>
<path d="M17.8143 21.3375C19.3903 21.3375 20.6677 20.0402 20.6677 18.4399C20.6677 16.8396 19.3903 15.5423 17.8143 15.5423C16.2384 15.5423 14.9609 16.8396 14.9609 18.4399C14.9609 20.0402 16.2384 21.3375 17.8143 21.3375Z" stroke="#DADADA" style="stroke:#DADADA;stroke:color(display-p3 0.8549 0.8549 0.8549);stroke-opacity:1;" stroke-width="1.6" stroke-linecap="round" stroke-linejoin="round"/>
</g>
</svg>
