<svg width="20" height="20" viewBox="0 0 20 20" fill="none" xmlns="http://www.w3.org/2000/svg">
<path d="M12.9558 5.7207L6.52344 8.93688" stroke="#001641" style="stroke:#001641;stroke:color(display-p3 0.0000 0.0858 0.2549);stroke-opacity:1;" stroke-width="1.58692" stroke-linecap="round" stroke-linejoin="round"/>
<path d="M12.9479 14.7773L6.51562 11.5611" stroke="#001641" style="stroke:#001641;stroke:color(display-p3 0.0000 0.0858 0.2549);stroke-opacity:1;" stroke-width="1.58692" stroke-linecap="round" stroke-linejoin="round"/>
<path d="M3.91716 13.1475C5.52395 13.1475 6.82651 11.845 6.82651 10.2382C6.82651 8.63137 5.52395 7.32883 3.91716 7.32883C2.31038 7.32883 1.00781 8.63137 1.00781 10.2382C1.00781 11.845 2.31038 13.1475 3.91716 13.1475Z" stroke="#001641" style="stroke:#001641;stroke:color(display-p3 0.0000 0.0858 0.2549);stroke-opacity:1;" stroke-width="1.58692" stroke-linecap="round" stroke-linejoin="round"/>
<path d="M15.5578 7.3291C17.1646 7.3291 18.4671 6.02654 18.4671 4.41975C18.4671 2.81297 17.1646 1.51041 15.5578 1.51041C13.951 1.51041 12.6484 2.81297 12.6484 4.41975C12.6484 6.02654 13.951 7.3291 15.5578 7.3291Z" stroke="#001641" style="stroke:#001641;stroke:color(display-p3 0.0000 0.0858 0.2549);stroke-opacity:1;" stroke-width="1.58692" stroke-linecap="round" stroke-linejoin="round"/>
<path d="M15.5578 18.9666C17.1646 18.9666 18.4671 17.664 18.4671 16.0572C18.4671 14.4504 17.1646 13.1479 15.5578 13.1479C13.951 13.1479 12.6484 14.4504 12.6484 16.0572C12.6484 17.664 13.951 18.9666 15.5578 18.9666Z" stroke="#001641" style="stroke:#001641;stroke:color(display-p3 0.0000 0.0858 0.2549);stroke-opacity:1;" stroke-width="1.58692" stroke-linecap="round" stroke-linejoin="round"/>
</svg>
