<?xml version="1.0" encoding="UTF-8" standalone="no"?>
<!-- Created with Inkscape (http://www.inkscape.org/) -->

<svg
   xmlns:dc="http://purl.org/dc/elements/1.1/"
   xmlns:cc="http://creativecommons.org/ns#"
   xmlns:rdf="http://www.w3.org/1999/02/22-rdf-syntax-ns#"
   xmlns:svg="http://www.w3.org/2000/svg"
   xmlns="http://www.w3.org/2000/svg"
   xmlns:sodipodi="http://sodipodi.sourceforge.net/DTD/sodipodi-0.dtd"
   xmlns:inkscape="http://www.inkscape.org/namespaces/inkscape"
   id="svg3347"
   version="1.1"
   inkscape:version="0.91 r13725"
   width="22"
   height="22"
   viewBox="0 0 22 22"
   sodipodi:docname="toolbar_sort.svg">
  <metadata
     id="metadata3353">
    <rdf:RDF>
      <cc:Work
         rdf:about="">
        <dc:format>image/svg+xml</dc:format>
        <dc:type
           rdf:resource="http://purl.org/dc/dcmitype/StillImage" />
        <dc:title />
      </cc:Work>
    </rdf:RDF>
  </metadata>
  <defs
     id="defs3351" />
  <sodipodi:namedview
     pagecolor="#ffffff"
     bordercolor="#666666"
     borderopacity="1"
     objecttolerance="10"
     gridtolerance="10"
     guidetolerance="10"
     inkscape:pageopacity="0"
     inkscape:pageshadow="2"
     inkscape:window-width="1920"
     inkscape:window-height="1028"
     id="namedview3349"
     showgrid="false"
     inkscape:zoom="22.627417"
     inkscape:cx="0.86033409"
     inkscape:cy="12.917023"
     inkscape:window-x="-8"
     inkscape:window-y="-8"
     inkscape:window-maximized="1"
     inkscape:current-layer="svg3347"
     inkscape:snap-page="true"
     inkscape:snap-center="true"
     inkscape:snap-midpoints="true"
     inkscape:snap-bbox="true"
     inkscape:bbox-paths="true"
     inkscape:bbox-nodes="true"
     inkscape:snap-bbox-edge-midpoints="true"
     inkscape:snap-bbox-midpoints="true"
     inkscape:object-paths="true" />
  <g
     id="g3799"
     transform="translate(-1,-1.0000074)"
     style="fill:#cccccc;fill-opacity:1">
    <path
       sodipodi:nodetypes="cccccccc"
       inkscape:connector-curvature="0"
       id="rect3015"
       d="m 17,5 -2,0 0,10 -2,0 3,4 3,-4 -2,0 z"
       style="fill:#cccccc;fill-opacity:1;stroke:none" />
    <g
       id="text3020"
       style="font-style:normal;font-variant:normal;font-weight:bold;font-stretch:normal;font-size:7.72429085px;line-height:125%;font-family:Andalus;-inkscape-font-specification:'Andalus Bold';text-align:start;letter-spacing:0px;word-spacing:0px;writing-mode:lr-tb;text-anchor:start;fill:#cccccc;fill-opacity:1;stroke:none"
       transform="matrix(1.2766821,0,0,1.0965925,-3.4,-1.9999986)">
      <path
         inkscape:connector-curvature="0"
         id="path3027"
         style="fill:#cccccc;fill-opacity:1;stroke:none"
         d="m 11.279237,11.459783 -1.4935638,0 0,-0.328367 0.1680731,0 c -0.013361,0 -0.02004,-0.01548 -0.020037,-0.04644 -3.4e-6,-0.01619 -0.00362,-0.03512 -0.010843,-0.05681 l -0.4261938,-1.2361503 -1.4945069,0 C 7.8473704,10.22764 7.7699736,10.558757 7.7699748,10.785368 c -1.2e-6,0.109064 0.032411,0.194004 0.097237,0.25482 0.064823,0.06082 0.1501956,0.09123 0.256117,0.09123 l 0.2788646,0 0,0.328367 -1.8226385,0 0,-0.323182 C 6.873113,11.121044 7.1262831,10.840844 7.3390663,10.296 l 1.5350519,-3.9125907 0.3370891,0 1.3269057,3.8310297 c 0.08926,0.260558 0.171997,0.455582 0.24822,0.585073 0.128702,0.215927 0.293004,0.328054 0.492904,0.336382 z M 9.3936598,9.4155612 8.7975071,7.5992874 8.1101282,9.4155612 Z" />
      <path
         style="fill:#cccccc;fill-opacity:1;stroke:none"
         sodipodi:nodetypes="cccccccscccccccccsccc"
         inkscape:connector-curvature="0"
         id="path3029"
         d="m 11.112814,17.475628 -0.317759,1.674602 -0.325539,0 c -0.005,-0.108591 -0.0081,-0.162886 -0.0092,-0.162887 l -3.625476,0 0,-0.311866 3.043231,-4.240251 -1.011503,0 c -0.4475682,0 -0.7601414,0.04684 -0.9377206,0.140493 -0.2830303,0.171299 -0.4349166,0.478215 -0.4556596,0.920748 l -0.416529,0 0,-1.556031 0.3316674,0 c 0.00487,0.110954 0.025536,0.166428 0.061996,0.166423 l 3.3963498,0 0,0.315166 -3.0545462,4.236951 1.0301255,0 c 0.5442114,0 0.9474607,-0.0638 1.2097497,-0.19141 0.341799,-0.165007 0.562596,-0.495653 0.662391,-0.991938 z" />
    </g>
  </g>
</svg>
